<?xml version="1.0" encoding="utf-8"?>
<!-- Generator: Adobe Illustrator 26.0.0, SVG Export Plug-In . SVG Version: 6.00 Build 0)  -->
<svg version="1.1" id="Camada_1" xmlns="http://www.w3.org/2000/svg" xmlns:xlink="http://www.w3.org/1999/xlink" x="0px" y="0px"
	 viewBox="0 0 203.6 179.3" style="enable-background:new 0 0 203.6 179.3;" xml:space="preserve">
<style type="text/css">
	.st0{display:none;opacity:0.44;fill:none;stroke:#BD1622;stroke-width:9.9213;stroke-miterlimit:10;enable-background:new    ;}
	.st1{display:none;fill:none;}
	.st2{fill:#67CCDC;}
	.st3{fill:#EB407B;}
	.st4{fill:#FDEBE1;}
</style>
<path class="st0" d="M171.3,265.3c46.2-78.5-12.7-148.9-77.4-148.9c-54.2,0-122.2,62.9-75.1,149.7"/>
<rect x="4.3" y="263.2" class="st1" width="22.6" height="9.4"/>
<g id="Fora_00000001624229552697549560000006756598685679344797_">
	<g>
		<path class="st2" d="M181.3,156.1c8.6-14.3,13.9-26.5,14.5-47.5c1.6-56-42.4-96.2-93.2-96.1v9.7c27,1.1,49.8,10.5,65.3,31.1
			c11,14.7,17.6,33.5,17.1,54.5c-0.5,18.8-6.5,33.3-15.3,48.3L181.3,156.1z"/>
	</g>
	<g>
		<path class="st2" d="M25,156.1c-8.6-14.3-13.9-26.5-14.5-47.5c-1.6-56,42.4-96.2,93.2-96.1v9.7c-27,1.1-49.8,10.5-65.3,31.1
			c-11,14.7-17.7,33.5-17.1,54.5c0.5,18.8,6.5,33.3,15.3,48.3L25,156.1z"/>
	</g>
</g>
<g>
	<g>
		<path class="st2" d="M136.4,54.6c-5.1-6.5-24.8-13.5-32.7-13.2V54c8.9,0.5,16.3,2.5,22.7,7C128.8,58.8,132.7,55.8,136.4,54.6z"/>
	</g>
	<g>
		<path class="st2" d="M70.8,54.6c5.1-6.5,25.2-13.5,33.1-13.2V54c-8.9,0.5-16.7,2.5-23.1,7C78.3,58.8,74.5,55.8,70.8,54.6z"/>
	</g>
</g>
<g>
	<g>
		<path class="st3" d="M153.4,52.6c-4.5-4.1-11.8-9.9-22.2-14.3c-11.4-4.8-21.6-5.8-28-5.9v13.3c14,0.3,20,3.1,30.7,10
			c3.1-1.4,7.5-2.8,12.9-3.2C149.3,52.3,151.5,52.4,153.4,52.6z"/>
	</g>
	<g>
		<path class="st3" d="M54.1,52.6c4.5-4.1,11.8-9.9,22.2-14.3c11.4-4.8,21.6-5.8,28-5.9v13.3c-14,0.3-20,3.1-30.7,10
			c-3.1-1.4-7.5-2.8-12.9-3.2C58.2,52.3,56,52.4,54.1,52.6z"/>
	</g>
</g>
<g>
	<path class="st4" d="M172.3,93.9c-1.4-11.8-5.4-15.3-2-19.7c0.1-0.1,0.1-0.2,0-0.3c-7.6-18.9-33.3-20.2-44.8-4.6
		c-7.4,9.4-8.2,22.4-22.9,22.9c0.2,0,0.3,0,0.5,0v15.4c-0.2,0-0.3,0-0.5,0c13.3,0,25.8,7.3,32.4,18.9c1.6,3.1,9,20.3,11.7,22.2
		c18.3,11,25-21.8,26.1-39.2C172.9,105.1,172.6,95.4,172.3,93.9z M132.4,94.6c-2.8,0-5-2.2-5-5s2.2-5,5-5s5,2.2,5,5
		C137.5,92.3,135.2,94.6,132.4,94.6z M146.5,108c-2.8,0-5-2.2-5-5s2.2-5,5-5s5,2.2,5,5S149.3,108,146.5,108z M146.5,82.1
		c-2.8,0-5-2.2-5-5s2.2-5,5-5s5,2.2,5,5C151.5,79.8,149.3,82.1,146.5,82.1z M159.7,94.6c-2.8,0-5-2.2-5-5s2.2-5,5-5s5,2.2,5,5
		S162.4,94.6,159.7,94.6z"/>
	<path class="st4" d="M103.4,92.3c0.2,0,0.3,0,0.5,0C89.2,91.8,88.3,78.8,81,69.4C69.4,53.8,43.8,55.1,36.2,74c0,0.1,0,0.2,0,0.3
		c3.4,4.4-0.6,7.9-2,19.7c-0.2,1.5-0.6,11.2-0.5,15.8c1.1,17.4,7.8,50.2,26.1,39.2c2.7-1.9,10.1-19.2,11.7-22.2
		c6.6-11.6,19.1-18.9,32.4-18.9c-0.2,0-0.3,0-0.5,0L103.4,92.3L103.4,92.3z M75.6,94.4H65.3v10.3h-9.8V94.4H45.3v-9.8h10.3V74.4h9.8
		v10.3h10.3L75.6,94.4L75.6,94.4z"/>
</g>
<g>
	<rect x="96.8" y="120.4" class="st3" width="11.5" height="11.8"/>
	<rect x="96.8" y="143.4" class="st3" width="11.5" height="12.9"/>
	<polygon class="st3" points="120.5,132.1 108.3,132.1 96.8,132.1 84.9,132.1 84.9,143.4 96.8,143.4 108.3,143.4 120.5,143.4 	"/>
</g>
<rect x="99.6" y="45.2" class="st3" width="9.3" height="29.9"/>
<circle class="st4" cx="60.4" cy="89.6" r="4.9"/>
</svg>
