<?xml version="1.0" encoding="utf-8"?>
<!-- Generator: Adobe Illustrator 26.0.0, SVG Export Plug-In . SVG Version: 6.00 Build 0)  -->
<svg version="1.1" id="Camada_1" xmlns="http://www.w3.org/2000/svg" xmlns:xlink="http://www.w3.org/1999/xlink" x="0px" y="0px"
	 viewBox="0 0 203.6 215.2" style="enable-background:new 0 0 203.6 215.2;" xml:space="preserve">
<style type="text/css">
	.st0{display:none;opacity:0.44;fill:none;stroke:#BD1622;stroke-width:9.9213;stroke-miterlimit:10;enable-background:new    ;}
	.st1{display:none;fill:none;}
	.st2{fill:#67CCDC;}
	.st3{fill:#EB407B;}
	.st4{fill:#FDEBE1;}
	.st5{enable-background:new    ;}
</style>
<path class="st0" d="M171.3,265.3c46.2-78.5-12.7-148.9-77.4-148.9c-54.2,0-122.2,62.9-75.1,149.7"/>
<rect x="4.3" y="263.2" class="st1" width="22.6" height="9.4"/>
<g id="Fora_00000001624229552697549560000006756598685679344797_">
	<g>
		<path class="st2" d="M181.3,156.1c8.6-14.3,13.9-26.5,14.5-47.5c1.6-56-42.4-96.2-93.2-96.1v9.7c27,1.1,49.8,10.5,65.3,31.1
			c11,14.7,17.6,33.5,17.1,54.5c-0.5,18.8-6.5,33.3-15.3,48.3L181.3,156.1z"/>
	</g>
	<g>
		<path class="st2" d="M25,156.1c-8.6-14.3-13.9-26.5-14.5-47.5c-1.6-56,42.4-96.2,93.2-96.1v9.7c-27,1.1-49.8,10.5-65.3,31.1
			c-11,14.7-17.7,33.5-17.1,54.5c0.5,18.8,6.5,33.3,15.3,48.3L25,156.1z"/>
	</g>
</g>
<g>
	<g>
		<path class="st2" d="M136.4,54.6c-5.1-6.5-24.8-13.5-32.7-13.2V54c8.9,0.5,16.3,2.5,22.7,7C128.8,58.8,132.7,55.8,136.4,54.6z"/>
	</g>
	<g>
		<path class="st2" d="M70.8,54.6c5.1-6.5,25.2-13.5,33.1-13.2V54c-8.9,0.5-16.7,2.5-23.1,7C78.3,58.8,74.5,55.8,70.8,54.6z"/>
	</g>
</g>
<g>
	<g>
		<path class="st3" d="M153.4,52.6c-4.5-4.1-11.8-9.9-22.2-14.3c-11.4-4.8-21.6-5.8-28-5.9v13.3c14,0.3,20,3.1,30.7,10
			c3.1-1.4,7.5-2.8,12.9-3.2C149.3,52.3,151.5,52.4,153.4,52.6z"/>
	</g>
	<g>
		<path class="st3" d="M54.1,52.6c4.5-4.1,11.8-9.9,22.2-14.3c11.4-4.8,21.6-5.8,28-5.9v13.3c-14,0.3-20,3.1-30.7,10
			c-3.1-1.4-7.5-2.8-12.9-3.2C58.2,52.3,56,52.4,54.1,52.6z"/>
	</g>
</g>
<g>
	<path class="st4" d="M172.3,93.9c-1.4-11.8-5.4-15.3-2-19.7c0.1-0.1,0.1-0.2,0-0.3c-7.6-18.9-33.3-20.2-44.8-4.6
		c-7.4,9.4-8.2,22.4-22.9,22.9c0.2,0,0.3,0,0.5,0v15.4c-0.2,0-0.3,0-0.5,0c13.3,0,25.8,7.3,32.4,18.9c1.6,3.1,9,20.3,11.7,22.2
		c18.3,11,25-21.8,26.1-39.2C172.9,105.1,172.6,95.4,172.3,93.9z M132.4,94.6c-2.8,0-5-2.2-5-5s2.2-5,5-5s5,2.2,5,5
		C137.5,92.3,135.2,94.6,132.4,94.6z M146.5,108c-2.8,0-5-2.2-5-5s2.2-5,5-5s5,2.2,5,5S149.3,108,146.5,108z M146.5,82.1
		c-2.8,0-5-2.2-5-5s2.2-5,5-5s5,2.2,5,5C151.5,79.8,149.3,82.1,146.5,82.1z M159.7,94.6c-2.8,0-5-2.2-5-5s2.2-5,5-5s5,2.2,5,5
		S162.4,94.6,159.7,94.6z"/>
	<path class="st4" d="M103.4,92.3c0.2,0,0.3,0,0.5,0C89.2,91.8,88.3,78.8,81,69.4C69.4,53.8,43.8,55.1,36.2,74c0,0.1,0,0.2,0,0.3
		c3.4,4.4-0.6,7.9-2,19.7c-0.2,1.5-0.6,11.2-0.5,15.8c1.1,17.4,7.8,50.2,26.1,39.2c2.7-1.9,10.1-19.2,11.7-22.2
		c6.6-11.6,19.1-18.9,32.4-18.9c-0.2,0-0.3,0-0.5,0L103.4,92.3L103.4,92.3z M75.6,94.4H65.3v10.3h-9.8V94.4H45.3v-9.8h10.3V74.4h9.8
		v10.3h10.3L75.6,94.4L75.6,94.4z"/>
</g>
<g>
	<rect x="96.8" y="120.4" class="st3" width="11.5" height="11.8"/>
	<rect x="96.8" y="143.4" class="st3" width="11.5" height="12.9"/>
	<polygon class="st3" points="120.5,132.1 108.3,132.1 96.8,132.1 84.9,132.1 84.9,143.4 96.8,143.4 108.3,143.4 120.5,143.4 	"/>
</g>
<rect x="99.6" y="45.2" class="st3" width="9.3" height="29.9"/>
<circle class="st4" cx="60.4" cy="89.6" r="4.9"/>
<g class="st5">
	<path class="st2" d="M31.9,193.7c-2.1,1.8-5,2.7-8.9,2.7c-1.8,0-3.3-0.1-4.6-0.4c-1.3-0.3-2.8-0.7-4.4-1.3c0.1-1,0.3-2.1,0.6-3.2
		s0.6-2.3,1-3.4c1.3,0.5,2.5,1,3.6,1.3c1.1,0.3,2.2,0.4,3.2,0.4c1.4,0,2.6-0.2,3.4-0.7c0.8-0.5,1.2-1.2,1.2-2.3c0-0.9-0.3-1.6-0.9-2
		c-0.6-0.4-1.3-0.8-2-1l-2.4-0.9c-2.1-0.8-3.7-1.8-5-3.1c-1.2-1.3-1.9-3.2-1.9-5.6c0-3,1-5.3,2.9-7c1.9-1.6,4.5-2.4,7.7-2.4
		c1.4,0,2.9,0.1,4.2,0.4c1.4,0.3,2.8,0.7,4.3,1.2c-0.1,0.9-0.3,1.9-0.6,3s-0.7,2.1-1.1,3.1c-0.7-0.3-1.6-0.7-2.6-1
		c-1-0.3-2.2-0.5-3.7-0.5c-0.9,0-1.7,0.2-2.4,0.5c-0.7,0.4-1.1,1-1.1,2c0,0.8,0.3,1.4,0.8,1.8c0.6,0.4,1.2,0.8,1.9,1l2,0.8
		c1.6,0.6,3,1.3,4.1,2c1.2,0.7,2.1,1.7,2.7,2.8c0.6,1.1,1,2.6,1,4.5C35,189.6,34,191.9,31.9,193.7z"/>
	<path class="st2" d="M39.1,174c1.3-0.2,2.5-0.3,3.6-0.3c0.5,0,1.1,0,1.7,0.1c0.6,0.1,1.2,0.2,1.8,0.3v7.4h6.3V174
		c1.2-0.3,2.5-0.4,3.6-0.4c1.1,0,2.3,0.1,3.6,0.3v21.9c-0.7,0.1-1.4,0.2-2,0.3c-0.6,0.1-1.2,0.1-1.6,0.1c-0.5,0-1,0-1.6-0.1
		c-0.6-0.1-1.3-0.1-2-0.3v-8.1h-6.3v8.1c-0.7,0.1-1.4,0.2-2,0.3c-0.6,0.1-1.2,0.1-1.6,0.1c-0.5,0-1,0-1.6-0.1
		c-0.6-0.1-1.3-0.1-2-0.3V174z"/>
	<path class="st2" d="M64.7,179.2c0.8-1.8,2-3.2,3.6-4.2c1.6-1,3.6-1.6,6-1.6c2,0,3.7,0.4,5.1,1.3c1.4,0.9,2.5,2.1,3.3,3.6
		s1.1,3.3,1.1,5.3c0,0.8,0,1.5-0.1,2.1c-0.1,0.6-0.1,1.1-0.2,1.5H70.8c0.3,1.1,0.9,2,1.7,2.4c0.8,0.5,1.8,0.7,3.1,0.7
		c1.8,0,3.7-0.4,5.8-1.2c0.4,0.7,0.7,1.6,1,2.6c0.3,1,0.5,2.1,0.5,3.2c-2.5,0.9-5.1,1.4-7.7,1.4c-2.7,0-4.9-0.5-6.6-1.5
		c-1.7-1-2.9-2.3-3.7-4c-0.8-1.7-1.2-3.7-1.2-5.9C63.5,182.9,63.9,180.9,64.7,179.2z M76.6,179.8c-0.6-0.7-1.4-1-2.4-1
		c-0.9,0-1.7,0.3-2.3,0.9c-0.7,0.6-1,1.5-1.1,2.6h6.8C77.5,181.3,77.2,180.5,76.6,179.8z"/>
	<path class="st2" d="M87.7,165.4c0.7-0.1,1.7-0.2,3-0.4c1.3-0.2,3-0.2,5.1-0.2c1.5,0,3,0.1,4.5,0.4c1.5,0.3,2.9,0.8,4.1,1.6
		c1.2,0.8,2.3,1.9,3,3.3c0.8,1.4,1.1,3.3,1.1,5.5c0,2-0.3,3.7-0.9,5s-1.4,2.4-2.4,3.2c-1,0.8-2.2,1.4-3.4,1.7
		c-1.3,0.3-2.6,0.5-4,0.5c-0.5,0-1.1,0-1.6-0.1c-0.6-0.1-0.9-0.1-1.2-0.1v9.9c-1.5,0.3-2.7,0.4-3.7,0.4c-1,0-2.2-0.1-3.7-0.4V165.4z
		 M95,179.8c0.4,0.1,1,0.2,1.8,0.2c1.2,0,2.2-0.4,3-1.1c0.8-0.7,1.1-1.8,1.1-3.2c0-1.7-0.5-2.9-1.4-3.6c-0.9-0.6-2-1-3.3-1
		c-0.2,0-0.4,0-0.6,0s-0.5,0-0.7,0V179.8z"/>
	<path class="st2" d="M112.4,173.9c1.3-0.2,2.5-0.3,3.7-0.3c1.1,0,2.3,0.1,3.5,0.3v16h8c0.1,0.6,0.2,1.1,0.3,1.6
		c0,0.5,0.1,1,0.1,1.4s0,0.9-0.1,1.4c0,0.5-0.1,1-0.3,1.6h-15.2V173.9z"/>
	<path class="st2" d="M148.7,195c-1.1,0.3-2.4,0.6-3.9,0.9c-1.5,0.3-3.1,0.5-4.9,0.5c-2,0-3.7-0.2-5.2-0.7c-1.5-0.5-2.7-1.3-3.6-2.4
		s-1.3-2.6-1.3-4.5c0-1.4,0.3-2.5,0.9-3.5c0.6-0.9,1.3-1.6,2.3-2.2c1-0.5,2-0.9,3.1-1.1s2.2-0.3,3.3-0.3h2.6c0-0.7-0.3-1.2-0.7-1.6
		c-0.4-0.4-1-0.6-1.6-0.7c-0.6-0.1-1.3-0.2-2-0.2c-0.7,0-1.5,0.1-2.4,0.2c-0.9,0.2-1.8,0.4-2.8,0.7c-0.5-1-0.9-1.8-1.1-2.5
		c-0.2-0.7-0.3-1.7-0.3-2.8c1.3-0.5,2.7-0.8,4.1-1c1.4-0.2,2.6-0.3,3.6-0.3c3,0,5.3,0.7,7,2.2c1.7,1.4,2.6,3.8,2.6,6.9V195z
		 M136.8,190.3c0.4,0.4,0.9,0.6,1.5,0.7c0.6,0.1,1.1,0.2,1.6,0.2c0.3,0,0.6,0,1.1-0.1c0.5-0.1,0.8-0.1,1.1-0.2v-4.7h-2.4
		c-1,0-1.8,0.2-2.5,0.6c-0.7,0.4-1,1-1,1.8C136.1,189.4,136.3,189.9,136.8,190.3z"/>
	<path class="st2" d="M149.5,173.9c0.3-0.1,0.9-0.1,1.6-0.2c0.8-0.1,1.6-0.1,2.6-0.1c0.7,0,1.5,0,2.2,0.1c0.7,0.1,1.2,0.1,1.4,0.2
		l4.2,8.4l4.2-8.4c0.2-0.1,0.7-0.1,1.3-0.2c0.6-0.1,1.3-0.1,2.1-0.1c0.9,0,1.8,0,2.5,0.1c0.8,0.1,1.3,0.1,1.6,0.2l-8.2,14.3v7.7
		c-0.7,0.1-1.4,0.2-2,0.3c-0.6,0.1-1.2,0.1-1.6,0.1c-0.5,0-1,0-1.6-0.1c-0.6-0.1-1.3-0.1-2-0.3v-7.7L149.5,173.9z"/>
	<path class="st2" d="M189.9,192.7c-0.8,1.1-1.9,2.1-3.4,2.7s-3.4,1-5.6,1c-1.4,0-2.6-0.1-3.8-0.3c-1.2-0.2-2.4-0.5-3.7-1
		c0.1-2,0.7-3.9,1.6-5.9c0.9,0.4,1.9,0.7,2.9,1s2,0.3,3,0.3c0.7,0,1.4-0.1,2-0.3c0.7-0.2,1-0.5,1-1.1c0-0.4-0.2-0.7-0.6-0.9
		c-0.4-0.2-0.8-0.4-1.3-0.5l-2.9-0.8c-1.5-0.4-2.7-1.2-3.7-2.2c-1-1-1.5-2.4-1.5-4.1c0-1.5,0.4-2.8,1.2-3.9c0.8-1.1,1.9-1.9,3.3-2.5
		s3-0.9,4.8-0.9c1.1,0,2.3,0.1,3.6,0.3c1.3,0.2,2.5,0.6,3.8,1c0,0.9-0.2,1.9-0.5,2.9c-0.3,1-0.7,2-1.1,2.7c-0.8-0.3-1.7-0.6-2.8-0.9
		c-1.1-0.3-2.1-0.4-3-0.4c-1.3,0-2,0.4-2,1.1c0,0.3,0.2,0.5,0.5,0.7c0.3,0.2,0.7,0.3,1.1,0.4l2.8,0.7c1.1,0.3,2.1,0.7,3,1.2
		c0.9,0.5,1.5,1.2,2,2c0.5,0.9,0.7,2,0.7,3.4C191.1,190.2,190.7,191.5,189.9,192.7z"/>
</g>
</svg>
