<?xml version="1.0" encoding="utf-8"?>
<!-- Generator: Adobe Illustrator 26.0.0, SVG Export Plug-In . SVG Version: 6.00 Build 0)  -->
<svg version="1.1" id="Camada_1" xmlns="http://www.w3.org/2000/svg" xmlns:xlink="http://www.w3.org/1999/xlink" x="0px" y="0px"
	 viewBox="0 0 202.7 215.22" style="enable-background:new 0 0 202.7 215.22;" xml:space="preserve">
<style type="text/css">
	.st0{display:none;opacity:0.44;fill:none;stroke:#BD1622;stroke-width:9.9213;stroke-miterlimit:10;}
	.st1{display:none;fill:none;}
	.st2{fill:#67CCDC;}
	.st3{fill:#EB407B;}
	.st4{fill:#FDEBE1;}
	.st5{font-family:'AllerDisplayTrial-Regular';}
	.st6{font-size:42.5577px;}
</style>
<path class="st0" d="M171.28,265.28c46.17-78.46-12.7-148.89-77.39-148.89c-54.2,0-122.22,62.92-75.07,149.72"/>
<rect x="4.34" y="263.18" class="st1" width="22.65" height="9.44"/>
<g id="Fora_00000001624229552697549560000006756598685679344797_">
	<g>
		<path class="st2" d="M181.34,156.06c8.64-14.28,13.94-26.5,14.53-47.54c1.58-56.03-42.4-96.16-93.19-96.07v9.72
			c27.04,1.07,49.84,10.49,65.26,31.07c11.01,14.69,17.63,33.46,17.1,54.46c-0.47,18.79-6.48,33.35-15.33,48.31L181.34,156.06z"/>
	</g>
	<g>
		<path class="st2" d="M25.04,156.06c-8.64-14.28-13.94-26.5-14.53-47.54c-1.58-56.03,42.4-96.16,93.19-96.07v9.72
			c-27.04,1.07-49.84,10.49-65.26,31.07C27.41,67.93,20.79,86.7,21.32,107.7c0.47,18.79,6.48,33.35,15.33,48.31L25.04,156.06z"/>
	</g>
</g>
<g>
	<g>
		<path class="st2" d="M136.36,54.64c-5.09-6.46-24.77-13.54-32.67-13.16v12.56c8.92,0.46,16.34,2.52,22.67,7.01
			C128.84,58.79,132.66,55.8,136.36,54.64z"/>
	</g>
	<g>
		<path class="st2" d="M70.82,54.63c5.09-6.46,25.16-13.55,33.06-13.17v12.58c-8.92,0.46-16.73,2.5-23.06,7
			C78.34,58.78,74.52,55.79,70.82,54.63z"/>
	</g>
</g>
<g>
	<g>
		<path class="st3" d="M153.39,52.59c-4.46-4.13-11.81-9.94-22.2-14.3c-11.43-4.8-21.63-5.78-27.96-5.9v13.32
			c14.03,0.29,19.97,3.1,30.74,10.03c3.07-1.36,7.46-2.85,12.88-3.24C149.28,52.32,151.48,52.39,153.39,52.59z"/>
	</g>
	<g>
		<path class="st3" d="M54.06,52.6c4.46-4.13,11.81-9.94,22.2-14.3c11.43-4.8,21.63-5.78,27.96-5.9v13.32
			c-14.03,0.29-19.97,3.1-30.74,10.03c-3.07-1.36-7.46-2.85-12.88-3.24C58.18,52.33,55.98,52.4,54.06,52.6z"/>
	</g>
</g>
<g>
	<path class="st4" d="M172.33,93.94c-1.41-11.82-5.36-15.27-1.99-19.7c0.06-0.08,0.07-0.18,0.04-0.27
		c-7.58-18.9-33.26-20.15-44.79-4.55c-7.38,9.37-8.2,22.41-22.91,22.89c0.17,0.01,0.33,0.02,0.5,0.02v15.41
		c-0.17,0-0.33,0.01-0.5,0.01c13.34,0.03,25.78,7.34,32.4,18.93c1.58,3.07,8.96,20.33,11.67,22.24
		c18.33,10.98,25.03-21.78,26.12-39.19C172.91,105.14,172.57,95.41,172.33,93.94z M132.43,94.59c-2.78,0-5.03-2.25-5.03-5.03
		c0-2.78,2.25-5.03,5.03-5.03c2.78,0,5.03,2.25,5.03,5.03C137.46,92.34,135.21,94.59,132.43,94.59z M146.5,107.96
		c-2.78,0-5.03-2.25-5.03-5.03c0-2.78,2.25-5.03,5.03-5.03c2.78,0,5.03,2.25,5.03,5.03C151.53,105.71,149.28,107.96,146.5,107.96z
		 M146.5,82.07c-2.78,0-5.03-2.25-5.03-5.03c0-2.78,2.25-5.03,5.03-5.03c2.78,0,5.03,2.25,5.03,5.03
		C151.53,79.81,149.28,82.07,146.5,82.07z M159.67,94.59c-2.78,0-5.03-2.25-5.03-5.03c0-2.78,2.25-5.03,5.03-5.03
		c2.78,0,5.03,2.25,5.03,5.03C164.7,92.34,162.45,94.59,159.67,94.59z"/>
	<path class="st4" d="M103.38,92.32c0.17,0,0.33-0.01,0.5-0.02c-14.71-0.48-15.53-13.52-22.91-22.89
		c-11.53-15.6-37.21-14.35-44.79,4.55c-0.04,0.09-0.02,0.19,0.04,0.27c3.37,4.43-0.58,7.88-1.99,19.7
		c-0.24,1.48-0.58,11.21-0.55,15.78c1.09,17.41,7.79,50.18,26.12,39.19c2.71-1.91,10.1-19.16,11.67-22.24
		c6.62-11.59,19.06-18.9,32.4-18.93c-0.17,0-0.33-0.01-0.5-0.01V92.32z M75.58,94.44H65.32v10.26h-9.76V94.44H45.29v-9.76h10.26
		V74.41h9.76v10.26h10.26V94.44z"/>
</g>
<g>
	<rect x="96.76" y="120.36" class="st3" width="11.49" height="11.79"/>
	<rect x="96.76" y="143.4" class="st3" width="11.49" height="12.89"/>
	<polygon class="st3" points="120.5,132.15 108.26,132.15 96.76,132.15 84.89,132.15 84.89,143.4 96.76,143.4 108.26,143.4 
		120.5,143.4 	"/>
</g>
<rect x="99.58" y="45.18" class="st3" width="9.29" height="29.88"/>
<circle class="st4" cx="60.44" cy="89.56" r="4.88"/>
<text transform="matrix(1 0 0 1 12.7591 195.9389)" class="st2 st5 st6">ShePlays</text>
</svg>
